<svg width="74" height="66" viewBox="0 0 74 66" fill="none" xmlns="http://www.w3.org/2000/svg">
<path d="M62.512 45.776L63.6366 44.1221L61.8953 42.938L60.8024 44.738L62.512 45.776ZM63.088 56.912L64.6561 58.1534L64.6561 58.1534L63.088 56.912ZM58.288 60.752L59.2046 62.5296L59.2053 62.5292L58.288 60.752ZM34.96 62.48L34.2578 64.3527L34.2653 64.3555L34.2728 64.3582L34.96 62.48ZM28.528 58.352L29.9677 56.9637L29.9551 56.9506L29.9422 56.9378L28.528 58.352ZM31.312 20.624L32.805 21.9547L32.8068 21.9527L31.312 20.624ZM68.08 14.96L69.3816 13.4415L69.3762 13.4369L68.08 14.96ZM42.256 39.44V37.44H40.5402L40.2793 39.1359L42.256 39.44ZM43.792 50.192L42.4541 51.6786L42.493 51.7136L42.5336 51.7465L43.792 50.192ZM56.944 50.192L57.7263 52.0327L57.7372 52.028L57.748 52.0233L56.944 50.192ZM42.928 35.312L40.96 34.9557L40.5334 37.312H42.928V35.312ZM53.68 31.088L52.2489 29.6909L52.2326 29.7075L52.2168 29.7245L53.68 31.088ZM56.752 17.264L55.0487 18.3122L55.0969 18.3905L55.152 18.464L56.752 17.264ZM51.28 16.688L52.0678 18.5263L52.097 18.5138L52.1258 18.5004L51.28 16.688ZM48.496 19.376L50.1037 20.5657L50.1267 20.5346L50.1485 20.5027L48.496 19.376ZM61.3874 47.4299C62.2983 48.0492 62.912 49.0944 62.912 51.056H66.912C66.912 48.1536 65.9258 45.6788 63.6366 44.1221L61.3874 47.4299ZM62.912 51.056C62.912 53.0705 62.4013 54.5572 61.5199 55.6706L64.6561 58.1534C66.2067 56.1948 66.912 53.7775 66.912 51.056H62.912ZM61.5199 55.6706C60.5034 56.9547 59.1374 58.0629 57.3707 58.9748L59.2053 62.5292C61.4066 61.3931 63.2406 59.9413 64.6561 58.1534L61.5199 55.6706ZM57.3714 58.9744C53.5461 60.9468 49.6031 61.92 45.52 61.92V65.92C50.2689 65.92 54.8379 64.7812 59.2046 62.5296L57.3714 58.9744ZM45.52 61.92C41.2184 61.92 37.9611 61.4483 35.6472 60.6018L34.2728 64.3582C37.2069 65.4317 40.9896 65.92 45.52 65.92V61.92ZM35.6622 60.6073C33.3533 59.7415 31.4694 58.521 29.9677 56.9637L27.0883 59.7403C29.0426 61.767 31.4467 63.2985 34.2578 64.3527L35.6622 60.6073ZM29.9422 56.9378C27.0266 54.0222 25.44 49.7924 25.44 43.952H21.44C21.44 50.5276 23.2454 55.8978 27.1138 59.7662L29.9422 56.9378ZM25.44 43.952C25.44 34.6632 27.953 27.3984 32.805 21.9547L29.819 19.2933C24.175 25.6256 21.44 33.9128 21.44 43.952H25.44ZM32.8068 21.9527C37.9988 16.1117 45.1295 13.12 54.448 13.12V9.12C44.1825 9.12 35.8892 12.4643 29.8172 19.2953L32.8068 21.9527ZM54.448 13.12C60.2978 13.12 64.2882 14.3592 66.7838 16.4831L69.3762 13.4369C65.8558 10.4408 60.7582 9.12 54.448 9.12V13.12ZM66.7784 16.4785C68.5443 17.9921 69.44 19.95 69.44 22.544H73.44C73.44 18.866 72.0957 15.7679 69.3816 13.4415L66.7784 16.4785ZM69.44 22.544C69.44 27.4642 67.3867 31.0276 63.1419 33.4851C58.7309 36.0389 51.8565 37.44 42.256 37.44V41.44C52.1115 41.44 59.8291 40.0251 65.1461 36.9469C70.6293 33.7724 73.44 28.8878 73.44 22.544H69.44ZM40.2793 39.1359C40.0107 40.8817 39.872 42.5208 39.872 44.048H43.872C43.872 42.7592 43.9893 41.3263 44.2327 39.7441L40.2793 39.1359ZM39.872 44.048C39.872 47.1767 40.5341 49.9506 42.4541 51.6786L45.1299 48.7054C44.4899 48.1294 43.872 46.8073 43.872 44.048H39.872ZM42.5336 51.7465C44.3538 53.22 46.749 53.824 49.456 53.824V49.824C47.299 49.824 45.9182 49.34 45.0504 48.6375L42.5336 51.7465ZM49.456 53.824C52.1927 53.824 54.9542 53.2108 57.7263 52.0327L56.1617 48.3513C53.8138 49.3492 51.5833 49.824 49.456 49.824V53.824ZM57.748 52.0233C60.6133 50.7653 62.8549 49.0649 64.2216 46.814L60.8024 44.738C59.9931 46.0711 58.5227 47.3147 56.14 48.3607L57.748 52.0233ZM42.928 37.312C47.9179 37.312 52.0725 35.7469 55.1432 32.4514L52.2168 29.7245C50.0395 32.0611 47.0261 33.312 42.928 33.312V37.312ZM55.1111 32.4851C58.1522 29.3699 59.616 25.3541 59.616 20.624H55.616C55.616 24.4699 54.4558 27.4301 52.2489 29.6909L55.1111 32.4851ZM59.616 20.624C59.616 18.9367 59.2933 17.3191 58.352 16.064L55.152 18.464C55.3627 18.7449 55.616 19.3673 55.616 20.624H59.616ZM58.4553 16.2158C57.5325 14.7162 56.0403 14.016 54.352 14.016V18.016C54.8397 18.016 54.9475 18.1478 55.0487 18.3122L58.4553 16.2158ZM54.352 14.016C52.9799 14.016 51.6663 14.3007 50.4342 14.8756L52.1258 18.5004C52.8137 18.1793 53.5481 18.016 54.352 18.016V14.016ZM50.4922 14.8497C49.0715 15.4586 47.8774 16.7329 46.8435 18.2493L50.1485 20.5027C51.0346 19.2031 51.6965 18.6854 52.0678 18.5263L50.4922 14.8497ZM46.8883 18.1863C44.2389 21.7666 42.3181 27.4535 40.96 34.9557L44.896 35.6683C46.2259 28.3224 48.0171 23.3854 50.1037 20.5657L46.8883 18.1863Z" fill="#5B1378"/>
<path d="M51 11C50.1667 6.16667 42.5 -2.3 18.5 2.5C-5.5 7.3 9.16667 8.5 19.5 8.5C27.6667 7.16667 44.6 5.8 47 11" stroke="#5B1378" stroke-width="2"/>
<path d="M37 14.5C30.8333 13.1667 16.2 11.9 7.00001 17.5C-2.19999 23.1 3.16667 22.8333 7.00001 22C14.1667 20 31.8 15.5 33 17.5" stroke="#5B1378" stroke-width="2"/>
</svg>
