<svg width="74" height="66" viewBox="0 0 74 66" fill="none" xmlns="http://www.w3.org/2000/svg">
<rect style="stroke: rgb(0, 0, 0); transform-box: fill-box; transform-origin: 50% 50%; fill-rule: nonzero; fill: rgb(255, 255, 255);" x="56.102" y="80.359" width="348.354" height="338.895" rx="50" ry="50" transform="matrix(0.754709, 0.656059, -0.656059, 0.754709, 11.757729, 4.775586)"></rect>
<path d="M 328.115 295.446 L 332.505 288.645 L 325.71 283.777 L 321.444 291.178 L 328.115 295.446 Z M 330.363 341.235 L 336.486 346.337 L 330.363 341.235 Z M 311.628 357.023 L 315.206 364.334 L 315.211 364.329 L 311.628 357.023 Z M 220.577 364.128 L 217.837 371.829 L 217.868 371.842 L 217.897 371.851 L 220.577 364.128 Z M 195.473 347.155 L 201.094 341.449 L 201.046 341.394 L 200.996 341.341 L 195.473 347.155 Z M 206.339 192.027 L 212.166 197.499 L 212.174 197.491 L 206.339 192.027 Z M 349.847 168.738 L 354.928 162.496 L 354.909 162.476 L 349.847 168.738 Z M 249.053 269.394 L 249.053 261.17 L 242.36 261.17 L 241.341 268.144 L 249.053 269.394 Z M 255.049 313.603 L 249.831 319.718 L 249.979 319.861 L 250.139 319.998 L 255.049 313.603 Z M 306.382 313.603 L 309.438 321.173 L 309.481 321.152 L 309.521 321.132 L 306.382 313.603 Z M 251.677 252.42 L 243.995 250.957 L 242.332 260.644 L 251.677 260.644 L 251.677 252.42 Z M 293.643 235.053 L 288.057 229.308 L 287.995 229.378 L 287.932 229.448 L 293.643 235.053 Z M 305.632 178.211 L 298.986 182.52 L 299.174 182.845 L 299.388 183.146 L 305.632 178.211 Z M 284.275 175.843 L 287.351 183.4 L 287.464 183.351 L 287.577 183.294 L 284.275 175.843 Z M 273.409 186.895 L 279.685 191.788 L 279.775 191.66 L 279.861 191.529 L 273.409 186.895 Z M 323.728 302.247 C 327.283 304.792 329.676 309.089 329.676 317.156 L 345.288 317.156 C 345.288 305.224 341.439 295.047 332.505 288.645 L 323.728 302.247 Z M 329.676 317.156 C 329.676 325.441 327.685 331.551 324.242 336.132 L 336.486 346.337 C 342.537 338.286 345.288 328.347 345.288 317.156 L 329.676 317.156 Z M 324.242 336.132 C 320.277 341.411 314.945 345.968 308.048 349.716 L 315.211 364.329 C 323.801 359.659 330.959 353.688 336.486 346.337 L 324.242 336.132 Z M 308.053 349.713 C 293.123 357.825 277.734 361.826 261.793 361.826 L 261.793 378.273 C 280.329 378.273 298.163 373.59 315.206 364.334 L 308.053 349.713 Z M 261.793 361.826 C 245.007 361.826 232.294 359.886 223.262 356.407 L 217.897 371.851 C 229.347 376.267 244.113 378.273 261.793 378.273 L 261.793 361.826 Z M 223.321 356.427 C 214.308 352.871 206.956 347.85 201.094 341.449 L 189.857 352.862 C 197.483 361.196 206.866 367.496 217.837 371.829 L 223.321 356.427 Z M 200.996 341.341 C 189.614 329.351 183.42 311.958 183.42 287.946 L 167.808 287.946 C 167.808 314.985 174.856 337.065 189.954 352.969 L 200.996 341.341 Z M 183.42 287.946 C 183.42 249.752 193.229 219.879 212.166 197.499 L 200.512 186.554 C 178.483 212.594 167.808 246.668 167.808 287.946 L 183.42 287.946 Z M 212.174 197.491 C 232.439 173.475 260.272 161.172 296.64 161.172 L 296.64 144.726 C 256.576 144.726 224.207 158.474 200.508 186.562 L 212.174 197.491 Z M 296.64 161.172 C 319.473 161.172 335.05 166.267 344.788 175.001 L 354.909 162.476 C 341.166 150.157 321.273 144.726 296.64 144.726 L 296.64 161.172 Z M 344.769 174.984 C 351.661 181.205 355.155 189.256 355.155 199.921 L 370.767 199.921 C 370.767 184.798 365.521 172.06 354.928 162.496 L 344.769 174.984 Z M 355.155 199.921 C 355.155 220.151 347.142 234.806 330.573 244.909 C 313.357 255.409 286.528 261.17 249.053 261.17 L 249.053 277.617 C 287.522 277.617 317.646 271.798 338.399 259.143 C 359.8 246.089 370.767 226.006 370.767 199.921 L 355.155 199.921 Z M 241.341 268.144 C 240.292 275.323 239.749 282.062 239.749 288.341 L 255.361 288.341 C 255.361 283.04 255.822 277.149 256.77 270.644 L 241.341 268.144 Z M 239.749 288.341 C 239.749 301.207 242.336 312.613 249.831 319.718 L 260.272 307.489 C 257.773 305.12 255.361 299.685 255.361 288.341 L 239.749 288.341 Z M 250.139 319.998 C 257.243 326.054 266.59 328.537 277.156 328.537 L 277.156 312.09 C 268.737 312.09 263.351 310.1 259.963 307.214 L 250.139 319.998 Z M 277.156 328.537 C 287.839 328.537 298.619 326.017 309.438 321.173 L 303.33 306.033 C 294.165 310.138 285.461 312.09 277.156 312.09 L 277.156 328.537 Z M 309.521 321.132 C 320.706 315.96 329.453 308.97 334.789 299.714 L 321.444 291.178 C 318.287 296.659 312.545 301.774 303.243 306.075 L 309.521 321.132 Z M 251.677 260.644 C 271.153 260.644 287.37 254.209 299.357 240.657 L 287.932 229.448 C 279.435 239.053 267.675 244.197 251.677 244.197 L 251.677 260.644 Z M 299.232 240.796 C 311.1 227.988 316.811 211.475 316.811 192.027 L 301.199 192.027 C 301.199 207.84 296.671 220.011 288.057 229.308 L 299.232 240.796 Z M 316.811 192.027 C 316.811 185.09 315.555 178.438 311.878 173.277 L 299.388 183.146 C 300.212 184.301 301.199 186.858 301.199 192.027 L 316.811 192.027 Z M 312.284 173.902 C 308.681 167.734 302.857 164.857 296.265 164.857 L 296.265 181.304 C 298.17 181.304 298.592 181.846 298.986 182.52 L 312.284 173.902 Z M 296.265 164.857 C 290.911 164.857 285.786 166.029 280.977 168.392 L 287.577 183.294 C 290.263 181.974 293.131 181.304 296.265 181.304 L 296.265 164.857 Z M 281.203 168.286 C 275.657 170.79 270.997 176.029 266.961 182.261 L 279.861 191.529 C 283.319 186.184 285.902 184.054 287.351 183.4 L 281.203 168.286 Z M 267.137 182.003 C 256.794 196.727 249.3 220.11 243.995 250.957 L 259.358 253.884 C 264.549 223.679 271.544 203.38 279.685 191.788 L 267.137 182.003 Z" style="fill: rgb(156, 76, 187);"></path>
<path d="M 228.539 166.846 C 204.473 161.365 147.356 156.156 111.447 179.182 C 75.54 202.207 96.487 201.11 111.447 197.685 C 139.42 189.461 208.244 170.958 212.927 179.182" stroke-width="2" style="fill: rgb(121, 177, 255);" stroke="#5B1378"></path>
</svg>
